<?xml version="1.0" encoding="UTF-8"?>
<svg xmlns="http://www.w3.org/2000/svg" viewBox="0 0 1200 630" width="1200" height="630" role="img" aria-label="A verified device facing a set of permissions — only one is unlocked and allowed; the rest are locked. Authenticated is not the same as authorized.">
  <rect width="1200" height="630" fill="#fdfaf2"/>
  <defs><pattern id="az-dots" width="22" height="22" patternUnits="userSpaceOnUse"><circle cx="11" cy="11" r="1" fill="#1a1d24" opacity="0.06"/></pattern></defs>
  <rect width="1200" height="630" fill="url(#az-dots)"/>
  <rect width="24" height="630" fill="#c14a3a"/>

  <rect x="130" y="232" width="214" height="166" rx="24" fill="#fdfaf2" stroke="#1a1d24" stroke-width="6"/>
  <circle cx="168" cy="270" r="8" fill="none" stroke="#1a1d24" stroke-width="3"/><circle cx="168" cy="270" r="3" fill="#c14a3a"/>
  <rect x="168" y="304" width="142" height="70" rx="9" fill="none" stroke="#1a1d24" stroke-width="3" opacity="0.35"/>
  <g transform="translate(330,236)">
    <circle cx="0" cy="0" r="22" fill="#fdfaf2" stroke="#c14a3a" stroke-width="4"/>
    <path d="M-9 15 L-13 37 L-3 29 L0 39 L3 29 L13 37 L9 15" fill="#fdfaf2" stroke="#c14a3a" stroke-width="3" stroke-linejoin="round"/>
    <path d="M-10 0 l7 8 12 -15" fill="none" stroke="#c14a3a" stroke-width="3.5" stroke-linecap="round" stroke-linejoin="round"/>
  </g>

  <g stroke="#1a1d24" stroke-width="2" opacity="0.28">
    <line x1="344" y1="315" x2="540" y2="203"/><line x1="344" y1="315" x2="540" y2="295"/>
    <line x1="344" y1="315" x2="540" y2="387"/><line x1="344" y1="315" x2="540" y2="479"/>
  </g>

  <rect x="540" y="170" width="400" height="66" rx="14" fill="#fdfaf2" stroke="#1a1d24" stroke-width="4"/>
  <path d="M884 203 l11 11 22 -26" fill="none" stroke="#3a7d44" stroke-width="6" stroke-linecap="round" stroke-linejoin="round"/>
  <rect x="540" y="262" width="400" height="66" rx="14" fill="#fdfaf2" stroke="#1a1d24" stroke-width="4" opacity="0.55"/>
  <g transform="translate(878,283)" fill="none" stroke="#c14a3a" stroke-width="4" stroke-linecap="round"><rect x="0" y="14" width="34" height="26" rx="4" fill="#fdfaf2"/><path d="M6 14 v-7 a11 11 0 0 1 22 0 v7"/><circle cx="17" cy="27" r="3.5" fill="#c14a3a" stroke="none"/></g>
  <rect x="540" y="354" width="400" height="66" rx="14" fill="#fdfaf2" stroke="#1a1d24" stroke-width="4" opacity="0.55"/>
  <g transform="translate(878,375)" fill="none" stroke="#c14a3a" stroke-width="4" stroke-linecap="round"><rect x="0" y="14" width="34" height="26" rx="4" fill="#fdfaf2"/><path d="M6 14 v-7 a11 11 0 0 1 22 0 v7"/><circle cx="17" cy="27" r="3.5" fill="#c14a3a" stroke="none"/></g>
  <rect x="540" y="446" width="400" height="66" rx="14" fill="#fdfaf2" stroke="#1a1d24" stroke-width="4" opacity="0.55"/>
  <g transform="translate(878,467)" fill="none" stroke="#c14a3a" stroke-width="4" stroke-linecap="round"><rect x="0" y="14" width="34" height="26" rx="4" fill="#fdfaf2"/><path d="M6 14 v-7 a11 11 0 0 1 22 0 v7"/><circle cx="17" cy="27" r="3.5" fill="#c14a3a" stroke="none"/></g>
</svg>
