<?xml version="1.0"?>
<svg xmlns="http://www.w3.org/2000/svg" viewBox="0 0 1200 630" width="1200" height="630">
  <rect width="1200" height="630" fill="#fdfaf2"/>
  <defs>
    <pattern id="kb-dots" x="0" y="0" width="22" height="22" patternUnits="userSpaceOnUse">
      <circle cx="11" cy="11" r="1" fill="#1a1d24" opacity="0.06"/>
    </pattern>
  </defs>
  <rect width="1200" height="630" fill="url(#kb-dots)"/>
  <rect x="0" y="0" width="20" height="630" fill="#1a1d24"/>
  <text x="80" y="90" font-family="ui-monospace, 'JetBrains Mono', monospace" font-size="18" letter-spacing="5" fill="#7a808c">PRODUCTION NOTES — FEB 2025</text>
  <text x="1120" y="90" font-family="ui-monospace, 'JetBrains Mono', monospace" font-size="18" letter-spacing="5" fill="#2a52be" text-anchor="end">7 MO IN</text>
  <line x1="80" y1="118" x2="1120" y2="118" stroke="#1a1d24" stroke-width="1"/>

  <g transform="translate(810, 168)">
    <rect x="0" y="0" width="80" height="80" rx="6" fill="none" stroke="#1a1d24" stroke-width="2"/>
    <line x1="14" y1="20" x2="66" y2="20" stroke="#1a1d24" stroke-width="1.5"/>
    <line x1="14" y1="34" x2="56" y2="34" stroke="#1a1d24" stroke-width="1.5"/>
    <line x1="14" y1="48" x2="60" y2="48" stroke="#1a1d24" stroke-width="1.5"/>
    <line x1="14" y1="62" x2="48" y2="62" stroke="#1a1d24" stroke-width="1.5"/>
    <line x1="80" y1="40" x2="110" y2="40" stroke="#2a52be" stroke-width="2" stroke-dasharray="3,3"/>
    <circle cx="130" cy="40" r="18" fill="#2a52be" stroke="#2a52be"/>
    <text x="130" y="45" text-anchor="middle" font-family="ui-monospace, 'JetBrains Mono', monospace" font-size="11" fill="#fdfaf2">vec</text>
    <line x1="148" y1="40" x2="178" y2="40" stroke="#2a52be" stroke-width="2" stroke-dasharray="3,3"/>
    <rect x="178" y="20" width="100" height="40" rx="4" fill="none" stroke="#1a1d24" stroke-width="2"/>
    <text x="228" y="44" text-anchor="middle" font-family="ui-monospace, 'JetBrains Mono', monospace" font-size="11" fill="#1a1d24">retrieve</text>
  </g>

  <text x="80" y="290" font-family="Newsreader, serif" font-weight="500" font-size="60" fill="#1a1d24">Knowledge Bases for Bedrock</text>
  <text x="80" y="356" font-family="Newsreader, serif" font-weight="500" font-size="60" fill="#1a1d24">in production —</text>
  <text x="80" y="420" font-family="Newsreader, serif" font-style="italic" font-size="32" fill="#7a808c">the gotchas list we wish we'd had.</text>

  <line x1="80" y1="490" x2="1120" y2="490" stroke="#1a1d24" stroke-width="1"/>
  <text x="80" y="540" font-family="ui-monospace, 'JetBrains Mono', monospace" font-size="14" letter-spacing="3" fill="#7a808c">L. ANGEL — RAG · BEDROCK</text>
</svg>
