<?xml version="1.0"?>
<svg xmlns="http://www.w3.org/2000/svg" viewBox="0 0 1200 630" width="1200" height="630">
  <rect width="1200" height="630" fill="#fdfaf2"/>
  <defs>
    <pattern id="lf-dots" x="0" y="0" width="28" height="28" patternUnits="userSpaceOnUse">
      <circle cx="14" cy="14" r="1" fill="#1a1d24" opacity="0.04"/>
    </pattern>
  </defs>
  <rect width="1200" height="630" fill="url(#lf-dots)"/>
  <rect x="0" y="0" width="16" height="630" fill="#1a1d24"/>
  <text x="80" y="92" font-family="ui-monospace, 'JetBrains Mono', monospace" font-size="16" letter-spacing="4" fill="#7a808c">DECISION TREES — FEB 2024</text>
  <line x1="80" y1="120" x2="1120" y2="120" stroke="#1a1d24" stroke-width="1"/>

  <g transform="translate(820, 170)" stroke="#1a1d24" stroke-width="2" fill="none">
    <rect x="0" y="0" width="80" height="40" rx="3"/>
    <text x="40" y="26" text-anchor="middle" font-family="ui-monospace, 'JetBrains Mono', monospace" font-size="14" fill="#1a1d24" stroke="none">lambda</text>
    <line x1="80" y1="20" x2="110" y2="20"/>
    <rect x="110" y="0" width="80" height="40" rx="3"/>
    <text x="150" y="26" text-anchor="middle" font-family="ui-monospace, 'JetBrains Mono', monospace" font-size="14" fill="#1a1d24" stroke="none">fargate</text>
    <line x1="190" y1="20" x2="220" y2="20"/>
    <rect x="220" y="0" width="80" height="40" rx="3"/>
    <text x="260" y="26" text-anchor="middle" font-family="ui-monospace, 'JetBrains Mono', monospace" font-size="14" fill="#1a1d24" stroke="none">ecs</text>
  </g>

  <text x="80" y="290" font-family="Newsreader, serif" font-weight="500" font-size="72" fill="#1a1d24">Lambda vs Fargate vs ECS</text>
  <text x="80" y="360" font-family="Newsreader, serif" font-style="italic" font-weight="400" font-size="42" fill="#7a808c">— the napkin decision tree.</text>

  <line x1="80" y1="490" x2="1120" y2="490" stroke="#1a1d24" stroke-width="1"/>
  <text x="80" y="540" font-family="ui-monospace, 'JetBrains Mono', monospace" font-size="14" letter-spacing="3" fill="#7a808c">L. ANGEL — AWS COMPUTE</text>
</svg>
