<?xml version="1.0"?>
<svg xmlns="http://www.w3.org/2000/svg" viewBox="0 0 1200 630" width="1200" height="630">
  <rect width="1200" height="630" fill="#fdfaf2"/>
  <defs>
    <pattern id="cp-launch-dots" x="0" y="0" width="20" height="20" patternUnits="userSpaceOnUse">
      <circle cx="10" cy="10" r="1" fill="#1a1d24" opacity="0.06"/>
    </pattern>
  </defs>
  <rect width="1200" height="630" fill="url(#cp-launch-dots)"/>
  <rect x="0" y="0" width="24" height="630" fill="#2a52be"/>
  <text x="80" y="92" font-family="ui-monospace, 'JetBrains Mono', monospace" font-size="20" letter-spacing="6" fill="#7a808c">LAUNCH — OCT 2025</text>
  <text x="1120" y="92" font-family="ui-monospace, 'JetBrains Mono', monospace" font-size="20" letter-spacing="6" fill="#2a52be" text-anchor="end">№ 02 OPEN SOURCE</text>
  <line x1="80" y1="120" x2="1120" y2="120" stroke="#1a1d24" stroke-width="2"/>

  <g transform="translate(800, 170)" stroke="#2a52be" fill="none" stroke-width="3">
    <rect x="0" y="0" width="80" height="56" rx="6"/>
    <rect x="100" y="0" width="80" height="56" rx="6"/>
    <rect x="200" y="0" width="80" height="56" rx="6"/>
    <line x1="80" y1="28" x2="100" y2="28"/>
    <line x1="180" y1="28" x2="200" y2="28"/>
    <line x1="280" y1="28" x2="304" y2="28"/>
    <circle cx="320" cy="28" r="16" fill="#2a52be" fill-opacity="0.18"/>
    <circle cx="320" cy="28" r="6" fill="#2a52be"/>
    <text x="40"  y="36" text-anchor="middle" font-family="ui-monospace, 'JetBrains Mono', monospace" font-size="18" fill="#2a52be" stroke="none">📡</text>
    <text x="140" y="36" text-anchor="middle" font-family="ui-monospace, 'JetBrains Mono', monospace" font-size="14" fill="#2a52be" stroke="none">mqtt</text>
    <text x="240" y="36" text-anchor="middle" font-family="ui-monospace, 'JetBrains Mono', monospace" font-size="14" fill="#2a52be" stroke="none">aws</text>
  </g>

  <text x="80" y="290" font-family="Newsreader, serif" font-weight="500" font-size="68" fill="#1a1d24">Open-sourcing the</text>
  <text x="80" y="360" font-family="Newsreader, serif" font-weight="500" font-size="68" fill="#2a52be">Connected Products</text>
  <text x="80" y="424" font-family="Newsreader, serif" font-weight="500" font-size="42" fill="#1a1d24">Starter Kit.</text>

  <line x1="80" y1="468" x2="1120" y2="468" stroke="#1a1d24" stroke-width="1" stroke-dasharray="6,8"/>
  <text x="80" y="510" font-family="ui-monospace, 'JetBrains Mono', monospace" font-size="18" letter-spacing="3" fill="#1a1d24">PYTHON · RUST · TYPESCRIPT · AWS IOT CORE</text>

  <line x1="80" y1="560" x2="1120" y2="560" stroke="#1a1d24" stroke-width="2"/>
  <text x="80" y="600" font-family="Newsreader, serif" font-weight="500" font-size="22" fill="#1a1d24">Luke Angel</text>
  <text x="1120" y="600" font-family="ui-monospace, 'JetBrains Mono', monospace" font-size="14" letter-spacing="2" fill="#7a808c" text-anchor="end">LUKEANGEL.CO / JOURNAL</text>
</svg>
