<?xml version="1.0" encoding="UTF-8"?>
<svg xmlns="http://www.w3.org/2000/svg" viewBox="0 0 1200 630" width="1200" height="630" role="img" aria-label="A device with two firmware slots: one active and verified, one loading a new signed image, and a rollback loop that falls back to the good slot if the new one fails — an update that can't brick the device.">
  <rect width="1200" height="630" fill="#fdfaf2"/>
  <defs><pattern id="ota-dots" width="22" height="22" patternUnits="userSpaceOnUse"><circle cx="11" cy="11" r="1" fill="#1a1d24" opacity="0.06"/></pattern></defs>
  <rect width="1200" height="630" fill="url(#ota-dots)"/>
  <rect width="24" height="630" fill="#2a52be"/>

  <rect x="180" y="178" width="440" height="334" rx="26" fill="#fdfaf2" stroke="#1a1d24" stroke-width="6"/>

  <rect x="228" y="230" width="344" height="94" rx="14" fill="#fdfaf2" stroke="#1a1d24" stroke-width="4"/>
  <path d="M268 277 l16 16 30 -36" fill="none" stroke="#3a7d44" stroke-width="6" stroke-linecap="round" stroke-linejoin="round"/>
  <g fill="#1a1d24" opacity="0.3"><rect x="360" y="268" width="170" height="10" rx="5"/><rect x="360" y="288" width="120" height="10" rx="5"/></g>

  <rect x="228" y="366" width="344" height="94" rx="14" fill="#fdfaf2" stroke="#1a1d24" stroke-width="4" stroke-dasharray="10 7"/>
  <g transform="translate(262,392)">
    <rect x="0" y="0" width="44" height="44" rx="6" fill="#fdfaf2" stroke="#2a52be" stroke-width="3.5"/>
    <path d="M11 22 l8 8 16 -20" fill="none" stroke="#2a52be" stroke-width="3.5" stroke-linecap="round" stroke-linejoin="round"/>
  </g>
  <g fill="#2a52be" opacity="0.35"><rect x="330" y="404" width="170" height="10" rx="5"/><rect x="330" y="424" width="120" height="10" rx="5"/></g>

  <path d="M572 413 C 700 413 700 277 588 277" fill="none" stroke="#2a52be" stroke-width="6" stroke-linecap="round"/>
  <path d="M588 277 l18 -9 v18 z" fill="#2a52be"/>
</svg>
