<?xml version="1.0"?>
<svg xmlns="http://www.w3.org/2000/svg" viewBox="0 0 1200 630" width="1200" height="630">
  <rect width="1200" height="630" fill="#fdfaf2"/>
  <defs>
    <pattern id="sm-dots" x="0" y="0" width="28" height="28" patternUnits="userSpaceOnUse">
      <circle cx="14" cy="14" r="1" fill="#1a1d24" opacity="0.05"/>
    </pattern>
  </defs>
  <rect width="1200" height="630" fill="url(#sm-dots)"/>
  <rect x="0" y="0" width="16" height="630" fill="#1a1d24"/>
  <text x="80" y="92" font-family="ui-monospace, 'JetBrains Mono', monospace" font-size="16" letter-spacing="4" fill="#7a808c">FIELD NOTES — APR 2024</text>
  <line x1="80" y1="120" x2="1120" y2="120" stroke="#1a1d24" stroke-width="1"/>

  <g transform="translate(810, 175)" stroke="#1a1d24" stroke-width="2" fill="none">
    <circle cx="20" cy="20" r="14"/>
    <line x1="34" y1="20" x2="86" y2="20"/>
    <circle cx="100" cy="20" r="14"/>
    <line x1="114" y1="20" x2="166" y2="20"/>
    <circle cx="180" cy="20" r="14"/>
    <line x1="194" y1="20" x2="246" y2="20"/>
    <circle cx="260" cy="20" r="14" fill="#2a52be" stroke="#2a52be"/>
    <text x="20"  y="56" text-anchor="middle" font-family="ui-monospace, 'JetBrains Mono', monospace" font-size="11" fill="#1a1d24" stroke="none">prep</text>
    <text x="100" y="56" text-anchor="middle" font-family="ui-monospace, 'JetBrains Mono', monospace" font-size="11" fill="#1a1d24" stroke="none">train</text>
    <text x="180" y="56" text-anchor="middle" font-family="ui-monospace, 'JetBrains Mono', monospace" font-size="11" fill="#1a1d24" stroke="none">eval</text>
    <text x="260" y="56" text-anchor="middle" font-family="ui-monospace, 'JetBrains Mono', monospace" font-size="11" fill="#2a52be" stroke="none">deploy</text>
  </g>

  <text x="80" y="295" font-family="Newsreader, serif" font-weight="500" font-size="72" fill="#1a1d24">SageMaker Pipelines —</text>
  <text x="80" y="375" font-family="Newsreader, serif" font-style="italic" font-size="48" fill="#1a1d24">week three notes.</text>
  <text x="80" y="430" font-family="Newsreader, serif" font-style="italic" font-size="28" fill="#7a808c">what stuck, what I'd swap.</text>

  <line x1="80" y1="490" x2="1120" y2="490" stroke="#1a1d24" stroke-width="1"/>
  <text x="80" y="540" font-family="ui-monospace, 'JetBrains Mono', monospace" font-size="14" letter-spacing="3" fill="#7a808c">L. ANGEL — ML PIPELINES</text>
</svg>
